<svg xmlns="http://www.w3.org/2000/svg" width="500" height="500" preserveAspectRatio="xMidYMid meet" version="1.0" viewBox="0 0 375 375"><metadata>Created by potrace 1.11, written by Peter Selinger 2001-2013</metadata><g fill="#000" stroke="none"><path d="M1865 3402 c-41 -4 -86 -22 -109 -44 -11 -10 -23 -18 -28 -18 -4 0 -19 -21 -32 -48 -29 -57 -30 -137 -2 -195 15 -30 63 -77 115 -114 7 -5 7 -444 0 -455 -4 -6 -27 -11 -53 -13 -41 -3 -46 -1 -47 18 0 12 0 63 -1 114 l0 92 -26 -4 c-40 -6 -132 -34 -172 -53 -19 -9 -38 -15 -42 -14 -5 1 -8 -3 -8 -10 0 -6 -3 -8 -6 -5 -4 4 -19 -2 -34 -13 -16 -11 -32 -20 -37 -20 -10 0 -18 -6 -110 -78 -74 -58 -153 -130 -153 -139 0 -3 -7 -13 -15 -22 -36 -38 -75 -87 -75 -95 0 -6 -10 -20 -22 -33 -12 -13 -18 -26 -15 -29 4 -4 63 -7 131 -7 83 0 123 -4 122 -11 -5 -29 -69 -110 -79 -100 -3 3 -86 7 -184 8 -213 3 -203 2 -203 20 0 21 -59 80 -99 101 -52 27 -128 26 -187 -1 -27 -13 -45 -23 -39 -24 5 0 -1 -7 -13 -16 -34 -24 -65 -96 -63 -144 1 -8 1 -24 2 -35 0 -43 43 -105 96 -142 48 -33 58 -36 115 -34 88 2 107 4 102 12 -2 4 10 17 26 30 17 13 41 40 54 59 20 31 29 35 70 37 41 2 46 0 47 -20 1 -12 1 -26 0 -31 -12 -66 -19 -267 -10 -281 4 -5 6 -23 5 -40 -1 -33 3 -32 -111 -35 -84 -2 -87 -2 -79 13 5 8 2 7 -9 -2 -34 -27 -249 -17 -222 11 3 2 -13 22 -35 44 -60 60 -64 62 -122 70 -14 2 -30 4 -35 5 -33 8 -119 -27 -159 -66 -25 -24 -47 -83 -50 -134 -10 -157 158 -272 293 -202 46 23 89 60 85 72 -1 5 2 9 8 9 5 0 10 7 10 15 0 8 5 15 10 15 16 0 23 2 48 11 14 5 21 5 18 0 -4 -5 9 -6 29 -1 19 4 35 5 35 1 0 -9 37 -7 46 2 4 3 14 3 23 -1 9 -5 130 -8 269 -7 l254 1 20 -43 c11 -24 18 -47 14 -50 -4 -4 -61 -7 -128 -7 -130 -1 -146 -8 -109 -45 12 -12 21 -22 20 -23 -3 -8 26 -58 33 -58 5 0 6 -4 3 -10 -3 -5 -3 -10 2 -10 4 0 19 -17 33 -38 21 -31 138 -151 190 -196 20 -17 137 -87 147 -88 4 0 20 -9 36 -20 15 -11 27 -17 27 -13 0 3 18 -4 40 -15 22 -11 40 -18 40 -14 0 4 6 2 13 -3 6 -6 39 -15 72 -21 33 -6 76 -14 95 -18 61 -12 212 -10 290 3 41 7 93 15 115 19 22 3 42 9 45 14 3 6 5 69 4 142 -1 131 6 168 33 168 7 0 13 6 13 13 0 8 4 7 10 -3 7 -11 10 -11 10 -2 0 7 4 11 9 8 5 -4 11 -1 13 6 2 6 9 8 16 4 7 -4 8 -15 4 -29 -4 -12 -7 -97 -6 -190 l1 -167 -31 -20 c-51 -32 -88 -68 -81 -80 3 -5 0 -12 -7 -15 -11 -5 -16 -25 -20 -100 -2 -31 13 -85 24 -85 5 0 7 -4 4 -8 -8 -13 49 -67 92 -88 99 -50 232 -1 284 103 9 18 14 54 14 91 -1 51 -7 68 -36 111 -19 27 -46 56 -60 63 -38 20 -45 36 -46 113 -2 69 13 115 37 115 6 0 22 10 36 23 63 57 171 164 174 173 13 28 52 84 60 84 5 0 9 7 9 15 0 18 -10 16 127 21 l111 4 37 -50 c37 -50 85 -87 127 -96 39 -9 62 -11 73 -5 6 3 19 7 29 8 40 7 126 76 126 102 0 5 5 11 12 13 14 5 21 168 7 168 -5 0 -9 6 -9 14 0 24 -87 103 -122 111 -72 17 -157 8 -176 -17 -7 -10 -19 -18 -26 -18 -11 0 -34 -34 -24 -35 2 -1 -11 -14 -28 -31 -28 -28 -35 -29 -105 -28 -85 1 -83 -2 -57 92 9 34 14 62 11 62 -3 0 -1 6 4 13 5 6 9 31 9 55 -1 23 1 42 4 42 7 0 4 184 -4 230 -8 50 -16 92 -22 111 -7 24 39 36 104 29 29 -3 55 -4 57 -1 9 8 76 7 81 -1 3 -5 10 -5 16 -2 14 9 92 9 107 0 5 -4 20 -24 32 -46 13 -22 35 -46 51 -52 15 -7 28 -16 28 -19 0 -3 6 -6 13 -7 6 -1 28 -5 47 -9 42 -11 127 6 140 27 6 8 10 11 10 5 0 -19 63 59 81 101 48 113 -41 271 -158 278 -18 2 -36 5 -39 9 -3 3 -17 2 -30 -3 -13 -5 -24 -7 -24 -4 0 3 -22 -7 -50 -23 -27 -15 -50 -33 -50 -40 0 -7 -6 -16 -14 -20 -8 -4 -15 -17 -17 -28 -4 -17 -14 -21 -67 -25 -35 -3 -70 -1 -78 3 -8 4 -14 4 -14 0 0 -8 -61 -8 -192 -2 -32 1 -61 0 -64 -4 -7 -7 -44 14 -44 25 0 23 -158 246 -181 256 -4 2 -22 17 -41 35 -33 32 -33 33 -33 122 0 49 -4 93 -10 97 -6 5 -6 8 1 8 6 0 10 11 9 23 -2 16 6 30 23 43 48 35 87 79 102 113 15 36 20 131 8 131 -5 0 -8 8 -8 19 0 26 -90 115 -120 119 -14 2 -29 7 -35 12 -9 6 -81 6 -95 0 -3 -1 -8 -2 -12 -1 -5 0 -8 -3 -8 -9 0 -6 -3 -9 -7 -8 -19 5 -83 -42 -83 -61 0 -6 -3 -11 -8 -11 -31 0 -51 -136 -27 -184 7 -13 11 -27 7 -30 -3 -3 1 -6 8 -6 7 0 11 -3 7 -6 -7 -7 46 -58 84 -81 24 -14 26 -21 25 -80 -1 -74 1 -74 -108 -24 -70 32 -155 59 -208 65 -19 3 -35 5 -35 6 0 1 -14 3 -30 4 -17 1 -36 5 -42 9 -6 4 -10 50 -10 119 -1 88 3 115 15 127 9 9 18 16 21 17 21 3 41 19 47 36 3 11 8 17 11 14 4 -3 12 6 20 20 40 78 30 180 -24 241 -29 32 -102 78 -110 69 -3 -3 -13 -2 -22 2 -9 4 -29 6 -46 4z m59 -151 c7 -6 16 -8 19 -4 4 3 8 0 8 -8 1 -8 2 -28 4 -45 4 -56 -28 -80 -101 -75 -18 1 -45 37 -49 66 -3 24 19 67 39 75 25 10 62 5 80 -9z m576 -226 c7 -8 16 -12 21 -9 8 5 15 -38 9 -61 -1 -5 -3 -16 -3 -23 0 -17 -41 -44 -71 -47 -13 -2 -35 7 -49 19 -27 22 -43 71 -26 82 5 3 7 10 3 15 -19 31 91 54 116 24z m-474 -422 c15 -3 53 -11 83 -17 13 -3 40 -11 60 -18 20 -7 38 -12 41 -13 13 -1 181 -99 199 -116 11 -10 23 -19 26 -19 3 0 27 -23 53 -51 26 -29 57 -62 69 -74 12 -13 19 -26 16 -29 -4 -3 -2 -6 4 -6 30 0 166 -291 149 -319 -3 -5 1 -14 9 -21 11 -9 12 -16 5 -25 -7 -8 -7 -15 -2 -19 14 -9 6 -295 -8 -313 -3 -4 -4 -7 -14 -58 -10 -52 -101 -240 -128 -265 -12 -11 -18 -20 -14 -20 4 0 -21 -27 -55 -60 -34 -33 -65 -60 -70 -60 -13 0 -18 32 -16 102 2 55 7 70 25 86 12 11 22 24 22 30 0 6 6 15 13 19 31 20 104 194 123 297 9 49 11 227 2 232 -5 3 -6 9 -4 13 3 4 1 25 -5 46 -6 20 -12 45 -14 54 -5 23 -39 115 -45 121 -3 3 -14 22 -25 43 -11 20 -23 37 -27 37 -5 0 -8 6 -8 14 0 7 -13 27 -30 44 -16 18 -30 36 -30 42 0 5 -3 10 -7 10 -5 0 -30 21 -58 46 -66 59 -72 64 -85 64 -5 0 -10 5 -10 10 0 6 -4 10 -10 10 -5 0 -37 13 -72 29 -76 34 -119 48 -176 57 -48 7 -76 29 -68 51 3 8 6 21 6 28 0 14 51 36 60 26 3 -3 10 -7 16 -8z m-458 -82 c6 -40 -6 -66 -38 -79 -17 -8 -52 -29 -79 -47 -42 -29 -91 -43 -126 -35 -5 1 -18 2 -27 1 -28 -3 -21 11 24 49 22 19 47 41 55 48 7 7 13 10 13 5 0 -4 6 -1 13 7 16 20 128 77 147 75 8 -1 16 -12 18 -24z m1898 -359 c30 -24 44 -55 34 -72 -5 -8 -6 -18 -4 -22 3 -4 0 -8 -5 -8 -6 0 -11 -6 -11 -14 0 -31 -92 -27 -116 5 -27 37 -3 126 30 113 8 -3 17 -1 21 5 9 16 27 13 51 -7z m-2822 -58 c29 -17 30 -82 2 -111 -58 -61 -153 6 -123 86 18 47 67 57 121 25z m476 -129 c4 3 6 -19 2 -47 -6 -57 -7 -251 -2 -308 1 -19 2 -40 1 -46 -1 -12 -42 -11 -60 1 -6 3 -11 1 -11 -5 0 -6 -4 -9 -9 -5 -22 13 -34 217 -19 310 11 75 28 107 50 102 10 -3 21 0 25 6 5 8 8 8 11 -1 2 -7 7 -10 12 -7z m-810 -410 c30 -10 52 -62 36 -89 -28 -50 -80 -71 -108 -42 -9 8 -18 13 -21 10 -7 -7 -19 31 -21 67 -2 20 4 30 21 38 13 6 23 15 23 19 0 10 35 8 70 -3z m2952 -199 c32 -67 -6 -123 -77 -111 -52 8 -57 14 -59 70 -1 57 19 76 80 73 36 -1 44 -5 56 -32z m-1831 -217 c24 -19 46 -37 47 -41 2 -5 10 -8 18 -8 7 0 29 -9 48 -19 32 -18 104 -42 116 -39 3 1 14 -4 26 -10 39 -21 176 -29 269 -17 106 15 95 20 95 -51 0 -77 0 -77 -155 -79 -141 -1 -260 22 -382 76 -24 11 -46 19 -51 19 -4 0 -14 9 -22 19 -7 11 -17 18 -22 15 -4 -3 -11 2 -14 10 -3 9 -11 16 -18 16 -28 1 -162 130 -145 140 6 4 41 6 79 5 60 -2 73 -6 111 -36z m972 -550 c34 -15 49 -61 30 -96 -18 -36 -30 -43 -74 -43 -45 0 -71 32 -65 81 7 56 56 82 109 58z" transform="translate(0.000000,375.000000) scale(0.100000,-0.100000)"/></g></svg>